<mxfile host="app.diagrams.net" modified="2023-12-08T08:14:55.565Z" agent="Mozilla/5.0 (Windows NT 10.0; Win64; x64) AppleWebKit/537.36 (KHTML, like Gecko) Chrome/119.0.0.0 Safari/537.36 Edg/119.0.0.0" etag="FPcohVRox_ojjYWJ4x2o" version="22.1.7" type="github">
  <diagram id="C5RBs43oDa-KdzZeNtuy" name="Page-1">
    <mxGraphModel dx="1594" dy="900" grid="1" gridSize="10" guides="1" tooltips="1" connect="1" arrows="1" fold="1" page="1" pageScale="1" pageWidth="827" pageHeight="1169" math="0" shadow="0">
      <root>
        <mxCell id="WIyWlLk6GJQsqaUBKTNV-0" />
        <mxCell id="WIyWlLk6GJQsqaUBKTNV-1" parent="WIyWlLk6GJQsqaUBKTNV-0" />
        <mxCell id="3DFoyxVVv05gBfWkPfRd-3" value="" style="edgeStyle=orthogonalEdgeStyle;rounded=0;orthogonalLoop=1;jettySize=auto;html=1;" edge="1" parent="WIyWlLk6GJQsqaUBKTNV-1" source="WIyWlLk6GJQsqaUBKTNV-3" target="3DFoyxVVv05gBfWkPfRd-0">
          <mxGeometry relative="1" as="geometry" />
        </mxCell>
        <mxCell id="WIyWlLk6GJQsqaUBKTNV-3" value="算法传图，调用录入接口" style="rounded=1;whiteSpace=wrap;html=1;fontSize=12;glass=0;strokeWidth=1;shadow=0;" parent="WIyWlLk6GJQsqaUBKTNV-1" vertex="1">
          <mxGeometry x="160" y="80" width="120" height="40" as="geometry" />
        </mxCell>
        <mxCell id="3DFoyxVVv05gBfWkPfRd-5" value="" style="edgeStyle=orthogonalEdgeStyle;rounded=0;orthogonalLoop=1;jettySize=auto;html=1;" edge="1" parent="WIyWlLk6GJQsqaUBKTNV-1" source="3DFoyxVVv05gBfWkPfRd-0" target="3DFoyxVVv05gBfWkPfRd-4">
          <mxGeometry relative="1" as="geometry" />
        </mxCell>
        <mxCell id="3DFoyxVVv05gBfWkPfRd-0" value="筛选出规定区域中人脸框最大的一个人" style="rounded=1;whiteSpace=wrap;html=1;" vertex="1" parent="WIyWlLk6GJQsqaUBKTNV-1">
          <mxGeometry x="160" y="170" width="120" height="60" as="geometry" />
        </mxCell>
        <mxCell id="3DFoyxVVv05gBfWkPfRd-7" value="" style="edgeStyle=orthogonalEdgeStyle;rounded=0;orthogonalLoop=1;jettySize=auto;html=1;" edge="1" parent="WIyWlLk6GJQsqaUBKTNV-1" source="3DFoyxVVv05gBfWkPfRd-4" target="3DFoyxVVv05gBfWkPfRd-6">
          <mxGeometry relative="1" as="geometry" />
        </mxCell>
        <mxCell id="3DFoyxVVv05gBfWkPfRd-10" value="" style="edgeStyle=orthogonalEdgeStyle;rounded=0;orthogonalLoop=1;jettySize=auto;html=1;" edge="1" parent="WIyWlLk6GJQsqaUBKTNV-1" source="3DFoyxVVv05gBfWkPfRd-4" target="3DFoyxVVv05gBfWkPfRd-9">
          <mxGeometry relative="1" as="geometry" />
        </mxCell>
        <mxCell id="3DFoyxVVv05gBfWkPfRd-4" value="人脸质量&amp;lt;0.5" style="rhombus;whiteSpace=wrap;html=1;rounded=1;" vertex="1" parent="WIyWlLk6GJQsqaUBKTNV-1">
          <mxGeometry x="170" y="300" width="100" height="80" as="geometry" />
        </mxCell>
        <mxCell id="3DFoyxVVv05gBfWkPfRd-6" value="&lt;font color=&quot;#d12323&quot;&gt;-2：人脸质量过低&lt;/font&gt;" style="whiteSpace=wrap;html=1;rounded=1;" vertex="1" parent="WIyWlLk6GJQsqaUBKTNV-1">
          <mxGeometry x="340" y="310" width="120" height="60" as="geometry" />
        </mxCell>
        <mxCell id="3DFoyxVVv05gBfWkPfRd-8" value="是" style="text;html=1;align=center;verticalAlign=middle;resizable=0;points=[];autosize=1;strokeColor=none;fillColor=none;" vertex="1" parent="WIyWlLk6GJQsqaUBKTNV-1">
          <mxGeometry x="280" y="308" width="40" height="30" as="geometry" />
        </mxCell>
        <mxCell id="3DFoyxVVv05gBfWkPfRd-12" value="" style="edgeStyle=orthogonalEdgeStyle;rounded=0;orthogonalLoop=1;jettySize=auto;html=1;" edge="1" parent="WIyWlLk6GJQsqaUBKTNV-1" source="3DFoyxVVv05gBfWkPfRd-9" target="3DFoyxVVv05gBfWkPfRd-11">
          <mxGeometry relative="1" as="geometry" />
        </mxCell>
        <mxCell id="3DFoyxVVv05gBfWkPfRd-14" value="" style="edgeStyle=orthogonalEdgeStyle;rounded=0;orthogonalLoop=1;jettySize=auto;html=1;" edge="1" parent="WIyWlLk6GJQsqaUBKTNV-1" source="3DFoyxVVv05gBfWkPfRd-9" target="3DFoyxVVv05gBfWkPfRd-13">
          <mxGeometry relative="1" as="geometry" />
        </mxCell>
        <mxCell id="3DFoyxVVv05gBfWkPfRd-9" value="眼睛遮挡置信度&amp;gt;0.5" style="rhombus;whiteSpace=wrap;html=1;rounded=1;" vertex="1" parent="WIyWlLk6GJQsqaUBKTNV-1">
          <mxGeometry x="160" y="460" width="120" height="80" as="geometry" />
        </mxCell>
        <mxCell id="3DFoyxVVv05gBfWkPfRd-11" value="-5:勿遮挡眼睛" style="whiteSpace=wrap;html=1;rounded=1;" vertex="1" parent="WIyWlLk6GJQsqaUBKTNV-1">
          <mxGeometry x="360" y="470" width="120" height="60" as="geometry" />
        </mxCell>
        <mxCell id="3DFoyxVVv05gBfWkPfRd-16" value="" style="edgeStyle=orthogonalEdgeStyle;rounded=0;orthogonalLoop=1;jettySize=auto;html=1;" edge="1" parent="WIyWlLk6GJQsqaUBKTNV-1" source="3DFoyxVVv05gBfWkPfRd-13" target="3DFoyxVVv05gBfWkPfRd-15">
          <mxGeometry relative="1" as="geometry" />
        </mxCell>
        <mxCell id="3DFoyxVVv05gBfWkPfRd-20" value="" style="edgeStyle=orthogonalEdgeStyle;rounded=0;orthogonalLoop=1;jettySize=auto;html=1;" edge="1" parent="WIyWlLk6GJQsqaUBKTNV-1" source="3DFoyxVVv05gBfWkPfRd-13" target="3DFoyxVVv05gBfWkPfRd-19">
          <mxGeometry relative="1" as="geometry" />
        </mxCell>
        <mxCell id="3DFoyxVVv05gBfWkPfRd-13" value="嘴巴遮挡置信度&amp;gt;0.5" style="rhombus;whiteSpace=wrap;html=1;rounded=1;" vertex="1" parent="WIyWlLk6GJQsqaUBKTNV-1">
          <mxGeometry x="160" y="620" width="120" height="80" as="geometry" />
        </mxCell>
        <mxCell id="3DFoyxVVv05gBfWkPfRd-15" value="-6：勿遮挡嘴巴" style="whiteSpace=wrap;html=1;rounded=1;" vertex="1" parent="WIyWlLk6GJQsqaUBKTNV-1">
          <mxGeometry x="360" y="630" width="120" height="60" as="geometry" />
        </mxCell>
        <mxCell id="3DFoyxVVv05gBfWkPfRd-22" value="" style="edgeStyle=orthogonalEdgeStyle;rounded=0;orthogonalLoop=1;jettySize=auto;html=1;" edge="1" parent="WIyWlLk6GJQsqaUBKTNV-1" source="3DFoyxVVv05gBfWkPfRd-19" target="3DFoyxVVv05gBfWkPfRd-21">
          <mxGeometry relative="1" as="geometry" />
        </mxCell>
        <mxCell id="3DFoyxVVv05gBfWkPfRd-19" value="当前录入顺序是&lt;br&gt;正视/左/右/抬头" style="rhombus;whiteSpace=wrap;html=1;rounded=1;" vertex="1" parent="WIyWlLk6GJQsqaUBKTNV-1">
          <mxGeometry x="160" y="760" width="120" height="90" as="geometry" />
        </mxCell>
        <mxCell id="3DFoyxVVv05gBfWkPfRd-24" value="" style="edgeStyle=orthogonalEdgeStyle;rounded=0;orthogonalLoop=1;jettySize=auto;html=1;" edge="1" parent="WIyWlLk6GJQsqaUBKTNV-1" source="3DFoyxVVv05gBfWkPfRd-21" target="3DFoyxVVv05gBfWkPfRd-23">
          <mxGeometry relative="1" as="geometry" />
        </mxCell>
        <mxCell id="3DFoyxVVv05gBfWkPfRd-21" value="是否符合录入角度" style="rhombus;whiteSpace=wrap;html=1;rounded=1;" vertex="1" parent="WIyWlLk6GJQsqaUBKTNV-1">
          <mxGeometry x="160" y="890" width="120" height="90" as="geometry" />
        </mxCell>
        <mxCell id="3DFoyxVVv05gBfWkPfRd-23" value="活体检测&amp;lt;0.95" style="rhombus;whiteSpace=wrap;html=1;rounded=1;" vertex="1" parent="WIyWlLk6GJQsqaUBKTNV-1">
          <mxGeometry x="180" y="1065" width="80" height="80" as="geometry" />
        </mxCell>
      </root>
    </mxGraphModel>
  </diagram>
</mxfile>
